<svg width="322" height="216" viewBox="0 0 322 216" fill="none" xmlns="http://www.w3.org/2000/svg">
<path d="M160.483 458.061C189.435 448.473 215.804 433.63 238.947 413.946C262.919 393.526 282.282 368.864 296.527 340.56C310.726 312.257 319.024 281.972 321.053 250.58C323.035 220.294 319.162 190.239 309.62 161.29C300.031 132.342 285.186 105.974 265.501 82.8338C245.078 58.8635 220.415 39.5029 192.109 25.259C163.803 11.0612 133.514 2.76382 102.12 0.735565C71.8316 -1.24659 41.7739 2.62552 12.8225 12.1675C-16.1288 21.7557 -42.4985 36.5988 -65.6411 56.2821C-89.6135 76.7029 -108.976 101.365 -123.221 129.668C-137.466 157.971 -145.718 188.257 -147.747 219.649C-149.729 249.934 -145.856 279.989 -136.314 308.938C-126.725 337.887 -111.88 364.254 -92.1952 387.395C-71.7725 411.365 -47.1086 430.726 -18.8027 444.97C9.50323 459.213 39.7915 467.465 71.1862 469.493C93.1302 470.922 114.936 469.309 136.281 464.653C144.44 462.901 152.462 460.689 160.483 458.061ZM142.689 123.445C204.279 154.376 229.22 229.652 198.286 291.191C167.352 352.776 92.1159 377.668 30.5252 346.737C-31.0655 315.807 -55.9599 240.577 -25.0263 178.992C-10.0435 149.167 15.6808 126.948 47.352 116.484C51.6394 115.055 55.9729 113.903 60.3064 112.935C88.1052 106.896 116.918 110.492 142.689 123.445Z" fill="url(#paint0_linear_1_707)"/>
<defs>
<linearGradient id="paint0_linear_1_707" x1="-123.136" y1="129.637" x2="296.612" y2="340.517" gradientUnits="userSpaceOnUse">
<stop stop-color="#DFFA60" stop-opacity="0.2"/>
<stop offset="1" stop-color="#DFFA60"/>
</linearGradient>
</defs>
</svg>
