<svg width="522" height="360" viewBox="0 0 522 360" fill="none" xmlns="http://www.w3.org/2000/svg">
<path d="M346.573 265.354C366.815 265.354 382.263 280.249 382.263 300.42C382.263 320.591 366.815 335.346 346.573 335.346C326.331 335.346 310.883 320.591 310.883 300.42C310.883 280.249 326.331 265.354 346.573 265.354ZM363.325 300.42C363.325 291.222 356.252 283.751 346.573 283.751C336.894 283.751 329.914 291.222 329.914 300.42C329.914 309.619 336.894 316.996 346.526 316.996C356.159 316.996 363.325 309.572 363.325 300.42Z" fill="white"/>
<path d="M390.779 333.899L390.779 0H409.717L409.717 273.619C414.371 268.716 419.768 265.354 429.68 265.354C447.455 265.354 462.299 280.109 462.299 300.42C462.299 320.591 447.455 335.346 429.68 335.346C418.745 335.346 412.928 331.191 407.623 325.494V333.899H390.779ZM409.857 300.42C409.857 309.619 416.93 316.996 426.609 316.996C436.287 316.996 443.221 309.619 443.221 300.42C443.221 291.222 436.241 283.844 426.609 283.844C416.976 283.844 409.857 291.222 409.857 300.42Z" fill="url(#paint0_linear_1_1031)"/>
<path d="M497.896 291.595C508.831 294.444 522 298.833 522 313.961C522 326.381 511.298 335.3 495.337 335.3C484.402 335.3 474.444 331.424 468.022 323.767L480.028 312.654C483.89 317.323 489.846 319.237 494.872 319.237C500.688 319.237 504.038 317.276 504.038 314.428C504.038 310.926 499.525 309.759 492.033 307.564C481.47 304.576 470.256 299.673 470.256 285.712C470.256 273.805 480.074 265.261 494.499 265.261C505.341 265.261 512.787 268.996 519.115 275.346L507.389 286.226C504.039 282.864 499.153 280.903 494.872 280.903C491.009 280.903 488.311 282.724 488.311 285.292C488.264 288.234 491.196 289.821 497.896 291.595Z" fill="white"/>
<path d="M108.048 265.354C128.29 265.354 143.738 280.249 143.738 300.42C143.738 320.591 128.29 335.346 108.048 335.346C87.8065 335.346 72.3578 320.591 72.3578 300.42C72.3578 280.249 87.8065 265.354 108.048 265.354ZM124.8 300.42C124.8 291.222 117.727 283.751 108.048 283.751C98.3694 283.751 91.4361 291.268 91.4361 300.42C91.4361 309.572 98.4159 316.996 108.048 316.996C117.727 316.949 124.8 309.572 124.8 300.42Z" fill="white"/>
<path d="M280.404 266.755C280.404 266.755 285.29 284.031 291.711 288.467C296.923 292.062 303.996 290.708 307.579 285.525C311.162 280.343 309.812 273.199 304.647 269.603C298.226 265.121 280.404 266.755 280.404 266.755Z" fill="white"/>
<path d="M249.646 299.813C249.646 319.751 235.268 335.113 217.771 335.113C208.837 335.113 202.323 332.031 197.902 326.942V360H177.893V266.381H197.902V272.685C202.323 267.595 208.837 264.514 217.771 264.514C235.268 264.514 249.646 279.876 249.646 299.813ZM229.684 299.813C229.684 289.774 223.03 283.471 213.816 283.471C204.603 283.471 197.949 289.774 197.949 299.813C197.949 309.852 204.603 316.109 213.816 316.109C223.03 316.109 229.684 309.852 229.684 299.813Z" fill="white"/>
<path d="M63.982 292.436V333.479H43.9731V295.377C43.9731 287.066 38.7615 283.191 32.3865 283.191C25.0344 283.191 20.0089 287.486 20.0089 296.965V333.479H0V266.661H20.0089V272.965C23.5919 267.969 30.246 264.747 39.0406 264.747C52.535 264.747 63.982 274.412 63.982 292.436Z" fill="white"/>
<path d="M257.789 333.992V266.475H277.845V334.039H257.789V333.992Z" fill="white"/>
<defs>
<linearGradient id="paint0_linear_1_1031" x1="400" y1="12" x2="401.391" y2="247.34" gradientUnits="userSpaceOnUse">
<stop stop-color="#DFFA60"/>
<stop offset="0.630208" stop-color="#1675EC"/>
<stop offset="1" stop-color="white"/>
</linearGradient>
</defs>
</svg>
