<svg width="471" height="442" viewBox="0 0 471 442" fill="none" xmlns="http://www.w3.org/2000/svg">
<path d="M213.365 468.711C235.125 470.832 256.977 469.864 278.598 465.853C309.532 460.137 338.667 448.383 365.083 430.958C391.499 413.534 413.812 391.361 431.284 365.178C448.111 339.917 459.728 311.936 465.86 282.066C471.991 252.195 472.268 221.91 466.782 192.085C461.065 161.154 449.309 132.021 431.883 105.608C414.457 79.148 392.329 56.8833 366.097 39.4588C340.788 22.5874 312.851 10.971 282.978 4.84013C253.104 -1.29073 222.862 -1.61341 192.989 3.9182C162.055 9.63419 132.919 21.3888 106.504 38.8134C80.0418 56.238 57.7751 78.3644 40.349 104.593C23.5222 129.854 11.8587 157.835 5.72732 187.66C-0.404091 217.53 -0.680702 247.816 4.80529 277.64C10.5218 308.571 22.2775 337.704 39.7036 364.118C57.1758 390.623 79.3042 412.888 105.489 430.359C130.753 447.184 158.736 458.847 188.563 464.977C196.815 466.637 205.113 467.882 213.365 468.711ZM247.618 110.494C252.044 110.909 256.47 111.6 260.895 112.476C293.581 119.16 321.702 138.198 340.097 166.086C378.038 223.615 362.087 301.242 304.599 339.18C247.065 377.117 169.431 361.168 131.49 303.685C93.5494 246.156 109.5 168.53 166.988 130.592C191.099 114.689 219.266 107.728 247.618 110.494Z" fill="url(#paint0_linear_1_705)"/>
<defs>
<linearGradient id="paint0_linear_1_705" x1="154.5" y1="34.0001" x2="120.035" y2="453.003" gradientUnits="userSpaceOnUse">
<stop stop-color="#1675EC" stop-opacity="0.2"/>
<stop offset="1" stop-color="#1675EC"/>
</linearGradient>
</defs>
</svg>
