<svg width="602" height="442" viewBox="0 0 602 442" fill="none" xmlns="http://www.w3.org/2000/svg">
<g clip-path="url(#clip0_1_704)">
<path d="M344.365 468.711C366.125 470.832 387.977 469.864 409.598 465.853C440.532 460.137 469.667 448.383 496.083 430.958C522.499 413.534 544.812 391.361 562.284 365.178C579.111 339.917 590.728 311.936 596.86 282.066C602.991 252.195 603.268 221.91 597.782 192.085C592.065 161.154 580.309 132.021 562.883 105.608C545.457 79.148 523.329 56.8833 497.097 39.4588C471.788 22.5874 443.851 10.971 413.978 4.84013C384.104 -1.29073 353.862 -1.61341 323.989 3.9182C293.055 9.63419 263.919 21.3888 237.504 38.8134C211.042 56.238 188.775 78.3644 171.349 104.593C154.522 129.854 142.859 157.835 136.727 187.66C130.596 217.53 130.319 247.816 135.805 277.64C141.522 308.571 153.277 337.704 170.704 364.118C188.176 390.623 210.304 412.888 236.489 430.359C261.753 447.184 289.736 458.847 319.563 464.977C327.815 466.637 336.113 467.882 344.365 468.711ZM378.618 110.494C383.044 110.909 387.47 111.6 391.895 112.476C424.581 119.16 452.702 138.198 471.097 166.086C509.038 223.615 493.087 301.242 435.599 339.18C378.065 377.117 300.431 361.168 262.49 303.685C224.549 246.156 240.5 168.53 297.988 130.592C322.099 114.689 350.266 107.728 378.618 110.494Z" fill="url(#paint0_linear_1_704)"/>
<path d="M160.483 684.061C189.435 674.473 215.804 659.63 238.947 639.946C262.919 619.526 282.282 594.864 296.527 566.56C310.726 538.257 319.024 507.972 321.053 476.58C323.035 446.294 319.162 416.239 309.62 387.29C300.031 358.342 285.186 331.974 265.501 308.834C245.078 284.863 220.415 265.503 192.109 251.259C163.803 237.061 133.514 228.764 102.12 226.736C71.8316 224.753 41.7739 228.626 12.8225 238.168C-16.1288 247.756 -42.4985 262.599 -65.6411 282.282C-89.6135 302.703 -108.976 327.365 -123.221 355.668C-137.466 383.971 -145.718 414.257 -147.747 445.649C-149.729 475.934 -145.856 505.989 -136.314 534.938C-126.725 563.887 -111.88 590.254 -92.1952 613.395C-71.7725 637.365 -47.1086 656.726 -18.8027 670.97C9.50323 685.213 39.7915 693.465 71.1862 695.493C93.1302 696.922 114.936 695.309 136.281 690.653C144.44 688.901 152.462 686.689 160.483 684.061ZM142.689 349.445C204.279 380.376 229.22 455.652 198.286 517.191C167.352 578.776 92.1159 603.668 30.5252 572.737C-31.0655 541.807 -55.9599 466.577 -25.0263 404.992C-10.0435 375.167 15.6808 352.948 47.352 342.484C51.6394 341.055 55.9729 339.903 60.3064 338.935C88.1052 332.896 116.918 336.492 142.689 349.445Z" fill="url(#paint1_linear_1_704)"/>
</g>
<defs>
<linearGradient id="paint0_linear_1_704" x1="285.5" y1="34.0001" x2="251.035" y2="453.003" gradientUnits="userSpaceOnUse">
<stop stop-color="#1675EC" stop-opacity="0.2"/>
<stop offset="1" stop-color="#1675EC"/>
</linearGradient>
<linearGradient id="paint1_linear_1_704" x1="-123.136" y1="355.637" x2="296.612" y2="566.517" gradientUnits="userSpaceOnUse">
<stop stop-color="#DFFA60" stop-opacity="0.2"/>
<stop offset="1" stop-color="#DFFA60"/>
</linearGradient>
<clipPath id="clip0_1_704">
<rect width="749" height="695" fill="white" transform="matrix(-1 0 0 1 601.7 0)"/>
</clipPath>
</defs>
</svg>
