<svg width="100" height="144" viewBox="0 0 100 144" fill="none" xmlns="http://www.w3.org/2000/svg">
<g clip-path="url(#clip0_1_233)">
<path d="M71.2 30.5283C71.2 28.9585 71.0595 27.4491 70.7985 26H50V34.5635H61.8848C61.3729 37.3308 59.817 39.6755 57.4782 41.2453V46.8H64.6152C68.7909 42.9459 71.2 37.2704 71.2 30.5283Z" fill="#4285F4"/>
<path d="M49.9336 52C55.8354 52 60.7834 50.0101 64.4 46.6162L57.3357 41.0404C55.3784 42.3737 52.8746 43.1616 49.9336 43.1616C44.2405 43.1616 39.4216 39.2525 37.7028 34H30.4V39.7576C33.9968 47.0202 41.3889 52 49.9336 52Z" fill="#34A853"/>
<path d="M37.6 34.2308C37.1641 32.8947 36.9164 31.4676 36.9164 30C36.9164 28.5324 37.1641 27.1053 37.6 25.7692V20H30.3183C28.7926 23.103 27.9987 26.5276 28 30C28 33.5931 28.8421 36.9939 30.3183 40L37.6 34.2308Z" fill="#FBBC05"/>
<path d="M50.0715 16.8384C53.3033 16.8384 56.205 17.9596 58.4864 20.1616L64.8 13.7879C60.9878 10.202 56.0049 8 50.0715 8C41.4665 8 34.0221 12.9798 30.4 20.2424L37.7543 26C39.4853 20.7475 44.3381 16.8384 50.0715 16.8384Z" fill="#EA4335"/>
<g clip-path="url(#clip1_1_233)">
<path d="M10 71.6667L12.575 76.8834L18.3334 77.7251L14.1667 81.7834L15.15 87.5167L10 84.8084L4.85002 87.5167L5.83335 81.7834L1.66669 77.7251L7.42502 76.8834L10 71.6667Z" fill="#E0FB60"/>
<path d="M30 71.6667L32.575 76.8834L38.3334 77.7251L34.1667 81.7834L35.15 87.5167L30 84.8084L24.85 87.5167L25.8334 81.7834L21.6667 77.7251L27.425 76.8834L30 71.6667Z" fill="#E0FB60"/>
<path d="M50 71.6667L52.575 76.8834L58.3334 77.7251L54.1667 81.7834L55.15 87.5167L50 84.8084L44.85 87.5167L45.8334 81.7834L41.6667 77.7251L47.425 76.8834L50 71.6667Z" fill="#E0FB60"/>
<path d="M70 71.6667L72.575 76.8834L78.3333 77.7251L74.1667 81.7834L75.15 87.5167L70 84.8084L64.85 87.5167L65.8333 81.7834L61.6667 77.7251L67.425 76.8834L70 71.6667Z" fill="#E0FB60"/>
<path d="M89.9999 71.6667L92.5749 76.8834L98.3332 77.7251L94.1666 81.7834L95.1499 87.5167L89.9999 84.8084L84.8499 87.5167L85.8332 81.7834L81.6666 77.7251L87.4249 76.8834L89.9999 71.6667Z" fill="#E0FB60"/>
<path d="M27.3853 111.184H19.8013V108.448L26.4253 98.2H30.6013V108.232H32.8333V111.184H30.6013V115H27.3853V111.184ZM27.5053 101.824L23.3293 108.256H27.5053V101.824ZM35.0079 113.32C35.0079 112.264 35.8719 111.4 36.9519 111.4C38.0319 111.4 38.8959 112.264 38.8959 113.32C38.8959 114.376 38.0319 115.264 36.9519 115.264C35.8719 115.264 35.0079 114.376 35.0079 113.32ZM46.7522 115H43.0802L47.6402 109.168C47.4962 109.192 47.3522 109.192 47.1842 109.192C43.8722 109.192 41.4002 106.84 41.4002 103.552C41.4002 100.36 43.6802 97.888 47.5202 97.888C51.3362 97.888 53.6162 100.36 53.6162 103.552C53.6162 105.904 52.4882 107.656 51.3362 109.096L46.7522 115ZM44.5682 103.552C44.5682 105.184 45.6962 106.264 47.5202 106.264C49.3922 106.264 50.4482 105.232 50.4482 103.552C50.4482 101.896 49.3202 100.816 47.5202 100.816C45.6962 100.816 44.5682 101.896 44.5682 103.552Z" fill="white"/>
<path d="M56.0937 115H55.2677L58.6277 105.2H59.4537L56.0937 115ZM62.2494 109.204H64.0834C66.0294 109.204 67.3034 110.352 67.3034 112.144C67.3034 113.95 66.0714 115.182 63.9854 115.182C62.6274 115.182 61.6614 114.692 60.7654 113.74L61.3114 113.152C62.2214 114.104 63.0054 114.398 63.9854 114.398C65.5954 114.398 66.4914 113.418 66.4914 112.144C66.4914 110.856 65.5954 109.988 64.0414 109.988H61.7874L61.3814 109.498L62.0114 105.2H66.7714V105.984H62.7254L62.2494 109.204ZM69.3209 114.454C69.3209 114.062 69.6149 113.754 70.0209 113.754C70.4129 113.754 70.7209 114.062 70.7209 114.454C70.7209 114.832 70.4129 115.154 70.0209 115.154C69.6149 115.154 69.3209 114.832 69.3209 114.454ZM76.3583 105.018C78.8223 105.018 79.9983 107.314 79.9983 110.1C79.9983 112.886 78.8223 115.182 76.3583 115.182C73.8943 115.182 72.7323 112.886 72.7323 110.1C72.7323 107.314 73.8943 105.018 76.3583 105.018ZM76.3583 114.398C78.4303 114.398 79.1723 112.27 79.1723 110.1C79.1723 107.93 78.4163 105.802 76.3583 105.802C74.3003 105.802 73.5443 107.93 73.5443 110.1C73.5443 112.27 74.2863 114.398 76.3583 114.398Z" fill="white" fill-opacity="0.6"/>
<path opacity="0.6" d="M9.534 132.8V132.618H5.894V131.834H10.374V132.45C10.388 135.04 8.526 137.182 5.74 137.182C2.94 137.182 0.728 134.928 0.728 132.1C0.728 129.272 2.94 127.018 5.74 127.018C7.182 127.018 8.54 127.634 9.492 128.726L8.89 129.272C8.218 128.474 7.14 127.802 5.74 127.802C3.374 127.802 1.554 129.776 1.554 132.1C1.554 134.424 3.374 136.398 5.74 136.398C8.092 136.398 9.534 134.48 9.534 132.8ZM11.7452 133.528C11.7452 131.526 13.2992 129.916 15.3432 129.916C17.3732 129.916 18.9552 131.526 18.9552 133.528C18.9552 135.53 17.3732 137.154 15.3432 137.154C13.2992 137.154 11.7452 135.53 11.7452 133.528ZM15.3432 136.384C16.9252 136.384 18.1292 135.11 18.1292 133.528C18.1292 131.96 16.9252 130.686 15.3432 130.686C13.7472 130.686 12.5572 131.96 12.5572 133.528C12.5572 135.11 13.7472 136.384 15.3432 136.384ZM20.2355 133.528C20.2355 131.526 21.7895 129.916 23.8335 129.916C25.8635 129.916 27.4455 131.526 27.4455 133.528C27.4455 135.53 25.8635 137.154 23.8335 137.154C21.7895 137.154 20.2355 135.53 20.2355 133.528ZM23.8335 136.384C25.4155 136.384 26.6195 135.11 26.6195 133.528C26.6195 131.96 25.4155 130.686 23.8335 130.686C22.2375 130.686 21.0475 131.96 21.0475 133.528C21.0475 135.11 22.2375 136.384 23.8335 136.384ZM35.1237 136.44V135.348C34.7317 135.95 33.8637 136.832 32.2537 136.832C30.3077 136.832 28.7257 135.376 28.7257 133.374C28.7257 131.372 30.3077 129.916 32.2537 129.916C33.9757 129.916 34.8577 130.966 35.1657 131.568V130.07H35.9357L35.9217 136.37C35.9217 138.834 34.3537 140.024 32.3937 140.024C30.6437 140.024 29.6077 139.114 29.2017 138.232L29.8877 137.84C30.2657 138.61 31.1477 139.254 32.3937 139.254C34.1157 139.254 35.1237 138.064 35.1237 136.44ZM32.3237 136.062C33.9057 136.062 35.1097 134.942 35.1097 133.374C35.1097 131.806 33.9057 130.686 32.3237 130.686C30.7277 130.686 29.5377 131.82 29.5377 133.374C29.5377 134.942 30.7277 136.062 32.3237 136.062ZM39.4949 137H38.6829V126.836H39.4949V137ZM48.3689 133.318C48.3689 133.528 48.3409 133.808 48.3129 133.906H42.3489C42.5309 135.292 43.6649 136.384 45.1209 136.384C46.1289 136.384 46.6049 136.104 47.3889 135.502L47.8789 136.076C47.0389 136.79 46.2129 137.154 45.1209 137.154C43.0769 137.154 41.5089 135.544 41.5089 133.528C41.5089 131.526 43.0769 129.916 45.1209 129.916C47.1929 129.916 48.3689 131.414 48.3689 133.318ZM42.3489 133.108H47.5709C47.5009 131.722 46.6329 130.686 45.1209 130.686C43.6789 130.686 42.5449 131.75 42.3489 133.108ZM60.2447 137H59.2647L56.4087 133.22C56.3527 133.234 56.3107 133.234 56.2687 133.234H54.0987V137H53.2867V127.2H56.2687C57.5707 127.2 59.3067 128.04 59.3067 130.196C59.3067 131.834 58.3127 132.73 57.2627 133.066L60.2447 137ZM54.0987 127.984V132.45H56.1707C57.8927 132.45 58.4947 131.218 58.4947 130.196C58.4947 129.188 57.8927 127.984 56.1707 127.984H54.0987ZM66.2778 132.31C66.2778 131.456 65.6058 130.686 64.4578 130.686C63.3238 130.686 62.7358 131.232 62.3298 131.82L61.6298 131.414C62.1198 130.644 62.9038 129.916 64.4578 129.916C66.0538 129.916 67.0758 130.952 67.0758 132.338V137H66.3058V135.754C65.8718 136.538 64.9758 137.154 63.6598 137.154C62.3298 137.154 61.3358 136.426 61.3358 135.18C61.3358 134.004 62.1478 133.374 63.3798 133.192L65.6338 132.856C66.1518 132.772 66.2778 132.576 66.2778 132.31ZM66.2778 134.172V133.486L63.5898 133.892C62.5958 134.046 62.1338 134.48 62.1338 135.166C62.1338 136.034 62.8478 136.384 63.7438 136.384C65.2558 136.384 66.2778 135.474 66.2778 134.172ZM69.872 134.788V130.812H68.542V130.07H69.284C69.718 130.07 69.872 129.888 69.886 129.468L69.97 127.984H70.684V130.07H72.994V130.812H70.684V134.746C70.684 135.796 71.076 136.328 71.93 136.328C72.392 136.328 72.672 136.272 73.092 136.16V136.93C72.7 137.042 72.35 137.098 71.93 137.098C70.572 137.098 69.872 136.258 69.872 134.788ZM74.7027 127.396C74.7027 127.046 74.9827 126.752 75.3467 126.752C75.7107 126.752 76.0047 127.046 76.0047 127.396C76.0047 127.76 75.7107 128.054 75.3467 128.054C74.9827 128.054 74.7027 127.76 74.7027 127.396ZM75.7527 137H74.9407V130.07H75.7527V137ZM79.3347 137H78.5227V130.07H79.2787V131.582C79.4887 130.966 80.1887 129.916 81.7567 129.916C83.2127 129.916 84.4027 130.84 84.4027 132.996V137H83.6047V133.164C83.6047 131.4 82.7507 130.686 81.5467 130.686C80.2027 130.686 79.3347 131.946 79.3347 133.346V137ZM92.696 136.44V135.348C92.304 135.95 91.436 136.832 89.826 136.832C87.88 136.832 86.298 135.376 86.298 133.374C86.298 131.372 87.88 129.916 89.826 129.916C91.548 129.916 92.43 130.966 92.738 131.568V130.07H93.508L93.494 136.37C93.494 138.834 91.926 140.024 89.966 140.024C88.216 140.024 87.18 139.114 86.774 138.232L87.46 137.84C87.838 138.61 88.72 139.254 89.966 139.254C91.688 139.254 92.696 138.064 92.696 136.44ZM89.896 136.062C91.478 136.062 92.682 134.942 92.682 133.374C92.682 131.806 91.478 130.686 89.896 130.686C88.3 130.686 87.11 131.82 87.11 133.374C87.11 134.942 88.3 136.062 89.896 136.062Z" fill="white"/>
</g>
</g>
<defs>
<clipPath id="clip0_1_233">
<rect width="100" height="144" fill="white"/>
</clipPath>
<clipPath id="clip1_1_233">
<rect width="100" height="74" fill="white" transform="translate(0 70)"/>
</clipPath>
</defs>
</svg>
